<?xml version="1.0" encoding="UTF-8"?>
<!DOCTYPE svg PUBLIC "-//W3C//DTD SVG 1.1//EN" "http://www.w3.org/Graphics/SVG/1.1/DTD/svg11.dtd">
<svg xmlns="http://www.w3.org/2000/svg" version="1.1" width="1653px" height="1653px" style="shape-rendering:geometricPrecision; text-rendering:geometricPrecision; image-rendering:optimizeQuality; fill-rule:evenodd; clip-rule:evenodd" xmlns:xlink="http://www.w3.org/1999/xlink">
<g><path style="opacity:1" fill="#21272d" d="M -0.5,-0.5 C 550.5,-0.5 1101.5,-0.5 1652.5,-0.5C 1652.5,550.5 1652.5,1101.5 1652.5,1652.5C 1101.5,1652.5 550.5,1652.5 -0.5,1652.5C -0.5,1101.5 -0.5,550.5 -0.5,-0.5 Z"/></g>
<g><path style="opacity:1" fill="#da324c" d="M 687.5,588.5 C 717.849,588.176 748.183,588.676 778.5,590C 818.489,592.745 856.155,603.411 891.5,622C 899.753,627.376 907.92,632.876 916,638.5C 917.062,635.971 917.895,633.304 918.5,630.5C 926.516,637.683 934.016,645.349 941,653.5C 958.088,678.009 975.421,702.343 993,726.5C 1005.89,741.723 1020.39,755.223 1036.5,767C 1049.98,775.496 1064.65,780.829 1080.5,783C 1086.76,788.605 1088.59,795.439 1086,803.5C 1081.67,815.302 1074.5,825.135 1064.5,833C 1042.22,850.811 1017.55,864.478 990.5,874C 984.557,875.589 978.557,876.922 972.5,878C 949.857,881.164 927.19,884.164 904.5,887C 887.389,889.027 871.055,893.694 855.5,901C 833.615,915.618 825.781,935.785 832,961.5C 835.975,972.806 843.809,979.973 855.5,983C 871.065,985.613 886.398,984.613 901.5,980C 928.562,972.305 952.895,959.638 974.5,942C 990.196,926.638 1005.53,910.971 1020.5,895C 1030.65,888.505 1033.82,891.005 1030,902.5C 1000.64,959.862 956.804,1002.36 898.5,1030C 862.506,1044.5 825.173,1051.33 786.5,1050.5C 788.5,1053.83 790.5,1057.17 792.5,1060.5C 791.833,1060.83 791.167,1061.17 790.5,1061.5C 717.647,1044.68 657.48,1007.68 610,950.5C 599.388,934.949 590.055,918.615 582,901.5C 580.316,903.351 578.483,905.018 576.5,906.5C 575.914,906.291 575.414,905.957 575,905.5C 551.646,816.273 567.313,734.606 622,660.5C 626.667,655.167 631.333,649.833 636,644.5C 636.116,633.118 636.783,621.785 638,610.5C 641.768,600.4 648.934,594.233 659.5,592C 668.907,590.27 678.241,589.103 687.5,588.5 Z"/></g>
<g><path style="opacity:1" fill="#21272d" d="M 758.5,611.5 C 804.441,609.32 847.775,618.82 888.5,640C 900.867,647.533 912.534,656.033 923.5,665.5C 925.071,663.118 925.904,660.451 926,657.5C 932.707,664.538 939.04,671.872 945,679.5C 956.397,697.236 967.397,715.236 978,733.5C 986.361,746.2 995.861,758.033 1006.5,769C 1017.9,776.709 1028.57,785.375 1038.5,795C 1029.84,790.089 1020.84,785.422 1011.5,781C 983.76,770.648 982.093,772.981 1006.5,788C 1018.09,797.009 1024.59,808.842 1026,823.5C 1027.97,826.968 1030.14,830.301 1032.5,833.5C 1027.88,839.249 1021.88,841.083 1014.5,839C 1012.17,838.667 1009.83,838.333 1007.5,838C 1000.28,833.702 992.614,830.369 984.5,828C 939.948,817.646 894.781,812.813 849,813.5C 805.703,813.042 762.87,817.209 720.5,826C 703.095,829.517 686.428,835.184 670.5,843C 636.871,866.535 625.371,898.368 636,938.5C 637.389,942.944 639.056,947.277 641,951.5C 645.416,959.68 649.749,967.68 654,975.5C 624.056,950.18 603.723,918.513 593,880.5C 590.601,880.028 588.601,881.028 587,883.5C 586.143,842.782 593.143,803.449 608,765.5C 620.475,741.702 639.642,725.869 665.5,718C 707.69,707.884 747.69,713.551 785.5,735C 809.23,751.06 833.23,766.727 857.5,782C 874.185,791.117 891.852,797.45 910.5,801C 928.346,804.164 943.18,798.997 955,785.5C 963.277,771.983 963.61,758.316 956,744.5C 943.416,725.002 931.083,705.335 919,685.5C 896.605,653.132 866.105,632.632 827.5,624C 795.486,617.71 763.153,614.376 730.5,614C 739.974,613.055 749.308,612.222 758.5,611.5 Z"/></g>
<g><path style="opacity:1" fill="#21262d" d="M 873.5,673.5 C 888.139,671.903 898.972,677.569 906,690.5C 913.333,707.167 913.333,723.833 906,740.5C 900.645,751.03 892.145,757.03 880.5,758.5C 866.23,755.737 856.73,747.404 852,733.5C 845.208,712.834 849.375,694.668 864.5,679C 867.586,676.937 870.419,677.103 873,679.5C 872.744,677.398 872.911,675.398 873.5,673.5 Z"/></g>
<g><path style="opacity:1" fill="#21272d" d="M 747.5,869.5 C 767.588,868.772 786.588,872.939 804.5,882C 808.031,884.501 811.198,887.334 814,890.5C 816,893.833 816,897.167 814,900.5C 808.708,907.46 803.042,914.127 797,920.5C 781.055,943.183 779.388,966.85 792,991.5C 804.716,1007.62 821.216,1017.78 841.5,1022C 833.058,1023.27 824.558,1024.11 816,1024.5C 798.734,1024.21 781.567,1022.88 764.5,1020.5C 765.1,1023.99 765.933,1027.32 767,1030.5C 733.433,1014.27 709.433,988.933 695,954.5C 684.249,923.989 692.083,899.489 718.5,881C 727.604,875.471 737.271,871.638 747.5,869.5 Z"/></g>
</svg>
